<?xml version="1.0" standalone="no"?><!DOCTYPE svg PUBLIC "-//W3C//DTD SVG 1.1//EN" "http://www.w3.org/Graphics/SVG/1.1/DTD/svg11.dtd"><svg class="icon" width="200px" height="200.00px" viewBox="0 0 1024 1024" version="1.1" xmlns="http://www.w3.org/2000/svg"><path d="M512 755.0464c141.6704 0 256-111.9232 256-249.5488C768 367.9232 653.6704 256 512 256 370.3808 256 256 367.9744 256 505.5488c0 41.1648 10.24 80.8448 29.1328 115.712a156.2112 156.2112 0 0 1 9.8304 133.7856H512zM512 204.8c169.728 0 307.2 134.656 307.2 300.6976 0 166.144-137.472 300.7488-307.2 300.7488H241.8176a22.784 22.784 0 0 1-20.3776-22.4256c0-3.2256 2.5088-9.3696 4.2496-12.9536 17.7664-19.2 28.6208-44.544 28.6208-72.3968 0-18.7904-4.9664-36.5568-13.7216-51.968A294.5536 294.5536 0 0 1 204.8 505.5488C204.8 339.456 342.3744 204.8 512 204.8z" /></svg>