<?xml version="1.0" standalone="no"?><!DOCTYPE svg PUBLIC "-//W3C//DTD SVG 1.1//EN" "http://www.w3.org/Graphics/SVG/1.1/DTD/svg11.dtd"><svg class="icon" width="200px" height="200.00px" viewBox="0 0 1024 1024" version="1.1" xmlns="http://www.w3.org/2000/svg"><path d="M464.1 811.2c-93.8 0-187.6-35.7-259-107.1-142.8-142.8-142.8-375.2 0-518 69.2-69.2 161.2-107.3 259-107.3s189.8 38.1 259 107.3c69.2 69.2 107.3 161.2 107.3 259s-38.1 189.8-107.3 259c-71.4 71.4-165.2 107.1-259 107.1z m0-671.3c-81.5 0-158.2 31.8-215.8 89.4-119 119-119 312.6 0 431.7 119 119 312.7 119 431.7 0 57.6-57.7 89.4-134.3 89.4-215.8S737.6 287 679.9 229.3c-57.6-57.6-134.3-89.4-215.8-89.4z"  /><path d="M920.3 895.4l-6 6c-10.2 10.2-26.9 10.2-37.2 0L698.5 722.7c-10.2-10.2-10.2-26.9 0-37.2l6-6c10.2-10.2 26.9-10.2 37.2 0l178.7 178.7c10.1 10.2 10.1 26.9-0.1 37.2z"  /></svg>