<?xml version="1.0" standalone="no"?><!DOCTYPE svg PUBLIC "-//W3C//DTD SVG 1.1//EN" "http://www.w3.org/Graphics/SVG/1.1/DTD/svg11.dtd"><svg class="icon" width="200px" height="200.00px" viewBox="0 0 1024 1024" version="1.1" xmlns="http://www.w3.org/2000/svg"><path d="M478.416 687.874c-35.56 20.206-76.684 31.752-120.51 31.752-43.818 0-84.934-11.542-120.492-31.74C143.088 716.662 85.286 812 64 896h587.824c-21.278-84-79.074-179.366-173.408-208.126z m-120.51-447.804c-116.958 0-211.772 94.788-211.772 211.716 0 116.928 94.814 211.714 211.772 211.714s211.772-94.788 211.772-211.714c0-116.928-94.816-211.716-211.772-211.716z m0 372.976c-67.342 0-124.89-45.026-147.994-101.046H505.9c-23.108 56.022-80.652 101.046-147.994 101.046z"  /><path d="M645.204 768H960c-21.276-84-79.074-163.382-173.406-192.144-35.562 20.208-76.686 31.746-120.512 31.746-29.646 0-58.048-5.308-84.336-14.98-14.89 24.94-33.854 51.184-55.948 69.812C578.49 682.708 618.292 728 645.204 768z m-32.114-368h200.986c-23.108 56-80.654 100.586-147.994 100.586-17.75 0-34.808-3.384-50.75-9.02a256.822 256.822 0 0 1-13.04 50.236c20.132 6.348 41.558 9.724 63.79 9.724 116.958 0 211.772-94.82 211.772-211.744 0-116.93-94.814-211.732-211.772-211.732-74.98 0-140.854 39.406-178.486 98.18C551.214 262.766 597.922 326 613.09 400z"  /></svg>